<?xml version="1.0" encoding="UTF-8"?>
<svg version="1.1" xmlns="http://www.w3.org/2000/svg" width="303" height="305">
<path d="M0 0 C99.99 0 199.98 0 303 0 C303 100.65 303 201.3 303 305 C203.01 305 103.02 305 0 305 C0 204.35 0 103.7 0 0 Z " fill="#023566" transform="translate(0,0)"/>
<path d="M0 0 C99.99 0 199.98 0 303 0 C303 100.65 303 201.3 303 305 C203.01 305 103.02 305 0 305 C0 204.35 0 103.7 0 0 Z M119 5 C118.04270996 5.21430664 117.08541992 5.42861328 116.09912109 5.64941406 C113.72133678 6.20873118 111.36087956 6.81110201 109 7.4375 C108.23300781 7.62892578 107.46601562 7.82035156 106.67578125 8.01757812 C102.04809986 9.2314606 97.98589691 10.8617329 93.75537109 13.09204102 C91.6653663 14.173088 89.53044292 14.96953894 87.3125 15.75 C72.57024082 21.5383717 59.37604768 32.17199549 48 43 C47.47583496 43.49693359 46.95166992 43.99386719 46.41162109 44.50585938 C39.4116423 51.18257455 33.18041816 57.77460323 28 66 C27.16275391 67.2375 27.16275391 67.2375 26.30859375 68.5 C18.34829418 80.46716177 12.34964011 93.31188524 8 107 C7.63003906 108.15242188 7.26007812 109.30484375 6.87890625 110.4921875 C2.8359003 123.79115945 1.61211176 136.92578054 1.6875 150.8125 C1.68932281 151.51377014 1.69114563 152.21504028 1.69302368 152.93756104 C1.73953653 163.58642862 2.33112796 173.64350052 5 184 C5.18224121 184.7331543 5.36448242 185.46630859 5.55224609 186.22167969 C10.87029889 207.44946269 19.54333104 229.90057847 35 246 C36.79964895 247.08546587 36.79964895 247.08546587 39 247 C41.49931215 245.01518079 41.49931215 245.01518079 43.9296875 242.171875 C44.90009764 241.13323177 45.87148618 240.09550197 46.84375 239.05859375 C48.35424882 237.41913804 49.85460222 235.77291174 51.33691406 234.10791016 C58.8627624 225.71408402 64.42785293 222.24524625 76 221 C78.24938301 220.65021092 80.49809919 220.29610397 82.74609375 219.9375 C84.97598246 219.62088759 87.20646651 219.30844228 89.4375 219 C96.67643316 217.97863725 103.81611358 216.90541 110.9375 215.25 C116.83906431 214.00396206 122.55126321 213.68355629 128.5625 213.625 C129.40868896 213.61114258 130.25487793 213.59728516 131.12670898 213.58300781 C136.06673626 213.62057832 139.92143709 213.92065358 144 217 C144.99 220.465 144.99 220.465 146 224 C140.72 224 135.44 224 130 224 C130 227.3 130 230.6 130 234 C135.28 234 140.56 234 146 234 C145.67 243.57 145.34 253.14 145 263 C143.02 260.69 141.04 258.38 139 256 C136.46570022 254.22376105 136.46570022 254.22376105 133.875 253.125 C133.04742187 252.73570312 132.21984375 252.34640625 131.3671875 251.9453125 C115.88796481 245.76384073 96.55320851 252.06281257 81 255 C78.93621931 255.38422953 76.87241883 255.76835273 74.80859375 256.15234375 C66.52650984 257.70585803 58.26132106 259.33992879 50 261 C64.28272118 280.24622002 91.69737406 290.6672796 114 297 C114.68078613 297.20189941 115.36157227 297.40379883 116.06298828 297.61181641 C152.63497809 308.14862935 193.57316977 299.48012804 226.31054688 281.74853516 C235.96816208 276.28846834 245.08661056 269.80498684 253 262 C253 261.34 253 260.68 253 260 C252.41734375 259.92483154 251.8346875 259.84966309 251.234375 259.7722168 C240.53710799 258.38144594 229.91668675 256.87476835 219.32421875 254.828125 C191.53129681 248.05824669 191.53129681 248.05824669 165.23046875 255.16796875 C161.59478001 257.90136978 159.73842259 260.84710159 158 265 C157.10234699 257.17759518 159.07018859 252.90859055 163.6958313 246.62667847 C168.3982789 240.76135579 174.03981575 235.64968751 179.4375 230.4375 C181.39161321 228.53868961 183.3426382 226.63693636 185.2881012 224.72926331 C186.49010573 223.55173373 187.69741717 222.3795918 188.9105072 221.21348572 C190.31139286 219.84661226 191.66125522 218.42779064 193 217 C193 216.34 193 215.68 193 215 C193.84872681 215.19577637 193.84872681 215.19577637 194.71459961 215.39550781 C196.44410077 215.7911193 198.17468838 216.1819946 199.90600586 216.56958008 C201.96239138 217.03113653 204.01655945 217.50266398 206.06860352 217.9831543 C211.49516956 219.20716411 216.68657321 220.13392581 222.25 220.37890625 C240.47924078 221.47133828 249.00762251 229.81204997 260.62890625 242.890625 C262.09386443 244.5869364 263.55412997 246.28738951 265 248 C280.89670955 232.16808902 290.62010624 211.31970341 296.8125 189.9375 C297.00755127 189.27878906 297.20260254 188.62007812 297.40356445 187.94140625 C300.89605552 175.07449607 301.43825369 161.57325757 301.4375 148.3125 C301.43923218 147.5773114 301.44096436 146.8421228 301.44274902 146.08465576 C301.42978223 133.47717503 299.88829465 122.0420193 296 110 C295.51660156 108.33130859 295.51660156 108.33130859 295.0234375 106.62890625 C291.3274314 94.52850367 286.0071373 82.53772576 279 72 C278.46761719 71.19433594 277.93523437 70.38867188 277.38671875 69.55859375 C257.76318944 40.73230587 231.59889324 21.04596089 199 9 C198.05640625 8.64711914 197.1128125 8.29423828 196.140625 7.93066406 C181.93328343 2.83558468 168.34202403 1.36056347 153.375 1.375 C152.57861115 1.37378143 151.78222229 1.37256287 150.96170044 1.37130737 C140.00242349 1.40540611 129.6860364 2.59523709 119 5 Z " fill="#FCFCFD" transform="translate(0,0)"/>
<path d="M0 0 C0.66 0 1.32 0 2 0 C2.14723105 3.31201908 2.23469907 6.62318059 2.3125 9.9375 C2.35439453 10.86369141 2.39628906 11.78988281 2.43945312 12.74414062 C2.67370931 26.09674293 -6.30535511 34.79844818 -15 44 C-24.60880395 53.86105375 -34.45563478 63.49009966 -44.26611328 73.1496582 C-47.13289295 75.97332665 -49.99199841 78.8045951 -52.84696198 81.64020729 C-54.43404243 83.21187498 -56.02962064 84.7745335 -57.62567139 86.33708191 C-68.62771141 97.2075751 -78.34765266 108.08272496 -79 124 C-79.66 124 -80.32 124 -81 124 C-83.5236495 112.65383601 -82.39159463 100.63511023 -76.54542542 90.47111511 C-70.98775365 81.76432539 -64.35092242 74.86261318 -56.99609375 67.67578125 C-55.74531046 66.43758084 -54.49557983 65.19831627 -53.24684143 63.95805359 C-49.9849585 60.72252984 -46.71208012 57.49839182 -43.43566895 54.27758789 C-38.1880822 49.11687853 -32.95428138 43.9422817 -27.72700691 38.76100731 C-25.91564083 36.96983178 -24.097481 35.18578291 -22.27842712 33.40242004 C-12.3304632 23.60031394 -2.95974414 14.05878465 0 0 Z " fill="#F4F7F9" transform="translate(170,32)"/>
<path d="M0 0 C0.33 0 0.66 0 1 0 C1.65908608 14.69457763 1.97943475 24.56400982 -8.28125 35.86328125 C-13.88606059 41.97421761 -19.75853585 47.8177395 -25.63671875 53.6640625 C-26.11931971 54.14409414 -26.60192066 54.62412579 -27.09914589 55.11870384 C-31.65169019 59.64472251 -36.21042284 64.16448322 -40.7746582 68.67871094 C-43.29453015 71.17151571 -45.80927077 73.66940774 -48.32111549 76.17029953 C-49.71519835 77.55534372 -51.11491443 78.93471078 -52.51481628 80.31387329 C-68.13939947 95.48281957 -68.13939947 95.48281957 -74.4375 115.4375 C-74.29132663 118.76405143 -73.91586865 121.79824431 -73 125 C-73.66 125 -74.32 125 -75 125 C-79.77638044 117.75013683 -81.5210638 110.70587148 -80.41992188 102.02050781 C-77.05494238 85.82947855 -63.65253961 73.31610611 -52.26180649 62.26430321 C-50.50471845 60.55691304 -48.75696682 58.84044042 -47.01150513 57.12117004 C-42.05621228 52.24123074 -37.09393235 47.36873996 -32.10498047 42.52319336 C-29.03164811 39.53690648 -25.976413 36.53305528 -22.93152237 33.51778603 C-21.78273973 32.38672044 -20.62761304 31.26205458 -19.46560287 30.14458275 C-10.03074312 21.06444687 -4.80106032 12.23892942 0 0 Z " fill="#F3F6F8" transform="translate(171,59)"/>
<path d="M0 0 C0.66 0 1.32 0 2 0 C2.7493223 13.79713707 3.14621742 23.74864207 -6.27490234 34.62670898 C-12.56128978 41.488482 -19.0643064 48.08407408 -25.7109375 54.59765625 C-26.57396484 55.44580902 -27.43699219 56.29396179 -28.32617188 57.16781616 C-31.91488448 60.69335825 -35.50372087 64.21829802 -39.11669922 67.71899414 C-41.78728799 70.31033198 -44.43784129 72.92086212 -47.0859375 75.53515625 C-48.29544571 76.69350731 -48.29544571 76.69350731 -49.52938843 77.8752594 C-55.73394615 84.04983172 -62.08732343 92.13966202 -62.625 101.25 C-61.9742454 105.15452761 -60.85245913 107.85325572 -58.875 111.23828125 C-58 113 -58 113 -58 116 C-65.16956467 111.98504378 -68.24184539 106.66689831 -71 99 C-73.0128641 90.8084075 -69.18896337 83.79383767 -65.16950607 76.81585312 C-61.68163552 71.4003527 -56.84703549 67.07209998 -52.22265625 62.64453125 C-51.08420222 61.5268406 -49.94755515 60.40730682 -48.81260681 59.28605652 C-45.85006281 56.36675589 -42.86838837 53.46790605 -39.88043213 50.574646 C-35.10009803 45.94100404 -30.3463491 41.28029938 -25.59991264 36.61197472 C-23.95921331 35.00507762 -22.30802794 33.40962821 -20.65504456 31.81538391 C-11.46939808 22.88054397 -1.99302349 13.15395502 0 0 Z " fill="#F3F6F8" transform="translate(170,87)"/>
<path d="M0 0 C3.76723394 3.51608501 5.76755207 5.87823696 6.3359375 11.06640625 C6.54227551 29.53365831 -2.40393978 42.04081573 -14.87207031 54.86035156 C-16.95175391 56.95148821 -19.05333727 59.01868468 -21.16497803 61.07751465 C-22.70037338 62.57486076 -24.23127583 64.07669536 -25.76171875 65.57910156 C-27.79373464 67.57375253 -29.84232248 69.54898057 -31.90234375 71.51464844 C-39.77275046 79.14102104 -45.59459883 87.17569473 -48 98 C-48.33 98 -48.66 98 -49 98 C-49.08820927 94.83351345 -49.1407905 91.66734908 -49.1875 88.5 C-49.21263672 87.613125 -49.23777344 86.72625 -49.26367188 85.8125 C-49.35108087 77.88741775 -47.86146904 71.71019603 -42.75 65.5 C-42.13898438 64.75234375 -41.52796875 64.0046875 -40.8984375 63.234375 C-40.27195313 62.49703125 -39.64546875 61.7596875 -39 61 C-38.09121094 59.92492187 -38.09121094 59.92492187 -37.1640625 58.828125 C-33.92033034 55.06029638 -30.56376908 51.46998568 -27 48 C-26.195625 47.175 -25.39125 46.35 -24.5625 45.5 C-22 43 -22 43 -19.125 40.6875 C-10.97270632 33.9775352 -2.08473267 23.61966384 0 13 C0.22535118 8.65322612 0.17894311 4.34765479 0 0 Z " fill="#F4F7F8" transform="translate(206,126)"/>
<path d="M0 0 C5.64279924 2.38733814 9.65663764 5.73149611 12.375 11.1875 C15.06062107 18.00310977 14.89222517 24.19777075 12.4375 31.0625 C7.13263177 42.54536869 -2.74721469 50.89095223 -11.74804688 59.48071289 C-20.88207008 68.2230211 -29.37127235 77.1484426 -32 90 C-32.33 90 -32.66 90 -33 90 C-33.0878954 86.64600151 -33.14068879 83.2923036 -33.1875 79.9375 C-33.21263672 78.99455078 -33.23777344 78.05160156 -33.26367188 77.08007812 C-33.38861225 65.12744909 -27.73702412 57.94594881 -19.66699219 49.58203125 C-16.44306333 46.39887832 -13.17835293 43.26166952 -9.890625 40.14453125 C-2.74605219 33.19522812 5.18717931 24.09924081 5.375 13.5625 C5.29226019 9.04189746 3.80563263 6.57080517 1 3 C0.505 1.515 0.505 1.515 0 0 Z " fill="#F3F7F8" transform="translate(190,106)"/>
<path d="M0 0 C0.66 0 1.32 0 2 0 C5.30510938 9.91532814 2.89911423 21.83250767 -1.44140625 31.06640625 C-5.41656641 38.28810093 -10.44527188 43.96069666 -16 50 C-17.22299805 51.37164307 -17.22299805 51.37164307 -18.47070312 52.77099609 C-21.00297552 55.59541587 -23.58898564 58.3615314 -26.1875 61.125 C-27.03119141 62.08148438 -27.87488281 63.03796875 -28.74414062 64.0234375 C-32.5855064 68.04581004 -35.18352042 70.70695158 -40.79541016 71.61230469 C-44.25599473 71.61665927 -47.57017211 71.44390782 -51 71 C-49.56009942 66.54590755 -47.31769402 63.83439884 -44.1328125 60.4375 C-43.64781281 59.91865234 -43.16281311 59.39980469 -42.66311646 58.86523438 C-36.73061805 52.56825257 -30.53759121 46.52272819 -24.32861328 40.5 C-12.54050954 29.04379794 -0.70558004 17.21615299 0 0 Z " fill="#F6F9FA" transform="translate(212,153)"/>
<path d="M0 0 C2 3 2 3 1.53125 5.3828125 C1.1909375 6.28773437 0.850625 7.19265625 0.5 8.125 C0.1803125 9.01445313 -0.139375 9.90390625 -0.46875 10.8203125 C-4.87494443 19.96991011 -11.39699178 26.77918388 -18.575634 33.80112839 C-20.37515298 35.56180655 -22.16464837 37.33216653 -23.95205688 39.10513306 C-28.39215221 43.50544854 -32.84846185 47.88922149 -37.30450439 52.27337646 C-41.07823748 55.98746188 -44.84544941 59.70794363 -48.60460281 63.43678665 C-50.35088153 65.16390336 -52.10607158 66.88157793 -53.86190796 68.59896851 C-61.94665419 76.57044437 -69.03984055 84.66454153 -74 95 C-74.66 94.01 -75.32 93.02 -76 92 C-76.33 93.65 -76.66 95.3 -77 97 C-77.33 97 -77.66 97 -78 97 C-79.13170843 88.75469572 -75.62708637 82.64685376 -71 76 C-69.15373038 73.7277015 -67.17240543 71.60642743 -65.15234375 69.48828125 C-64.25966545 68.54217987 -64.25966545 68.54217987 -63.34895325 67.57696533 C-52.86196293 56.55506714 -41.95283086 45.92895624 -31.13598633 35.23193359 C-28.63856579 32.76162227 -26.1463134 30.28618735 -23.65694618 27.80776215 C-22.28231018 26.44212698 -20.90202633 25.08218409 -19.52153015 23.72247314 C-12.2403371 16.47005137 -5.13250459 8.96158175 0 0 Z " fill="#0B3969" transform="translate(169,57)"/>
<path d="M0 0 C0.33 0 0.66 0 1 0 C1.99222466 7.27631421 -0.99870604 13.05307127 -5 19 C-6.84352985 21.28869677 -8.83503108 23.41369186 -10.86328125 25.5390625 C-11.76088417 26.49028488 -11.76088417 26.49028488 -12.67662048 27.46072388 C-22.85732534 38.1543771 -33.47256189 48.44268968 -44.02026367 58.7734375 C-45.96163497 60.6754701 -47.89742814 62.5828702 -49.82749939 64.49636841 C-51.62240084 66.27550039 -53.42498791 68.04692534 -55.23658752 69.80905151 C-60.2406505 74.79145028 -63.99202243 79.59265957 -67 86 C-68.32 86 -69.64 86 -71 86 C-71.33 88.97 -71.66 91.94 -72 95 C-72.33 95 -72.66 95 -73 95 C-74.02272676 84.14773274 -71.47665576 77.79383556 -64.88330078 69.26049805 C-53.13665007 55.23008718 -39.7578252 42.66687131 -26.72851562 29.8449707 C-23.96554523 27.1249953 -21.21015719 24.39751379 -18.45891953 21.66567421 C-16.9260083 20.14822874 -15.38463097 18.63977001 -13.84280396 17.13139343 C-8.9386236 12.28597874 -4.62255056 7.489416 -1.02755737 1.57832336 C-0.68846344 1.05747665 -0.34936951 0.53662994 0 0 Z " fill="#0D3C6A" transform="translate(169,85)"/>
<path d="M0 0 C0.12375 0.639375 0.2475 1.27875 0.375 1.9375 C0.58125 2.618125 0.7875 3.29875 1 4 C1.66 4.33 2.32 4.66 3 5 C2.34 5 1.68 5 1 5 C1.10441406 5.89138672 1.10441406 5.89138672 1.2109375 6.80078125 C1.89451849 17.26608064 -3.28459454 24.23773829 -9.8359375 31.96484375 C-10.30899826 32.52302795 -10.78205902 33.08121216 -11.26945496 33.65631104 C-17.79466813 41.22684993 -25.02492672 48.11448316 -32.1887207 55.07226562 C-38.94358981 61.64791131 -45.17679539 67.81197322 -50 76 C-45.38 76 -40.76 76 -36 76 C-36 76.33 -36 76.66 -36 77 C-41.94 77 -47.88 77 -54 77 C-50.40117477 60.48774306 -39.32773461 51.02016817 -27.60913086 39.6706543 C-18.18981499 30.52171537 -9.31075257 21.56380919 -3.5625 9.5625 C-3.08941406 8.59441406 -2.61632812 7.62632812 -2.12890625 6.62890625 C-1.17331437 4.40360058 -0.48627369 2.36429624 0 0 Z " fill="#0B3A69" transform="translate(211,148)"/>
<path d="M0 0 C0.99 0.33 1.98 0.66 3 1 C3.76965287 14.63995911 0.801305 22.70629981 -8 33 C-8.53109375 33.65226562 -9.0621875 34.30453125 -9.609375 34.9765625 C-11.75865777 37.58007513 -13.78693853 39.83064345 -16.4375 41.9375 C-18.79407092 43.8342522 -20.54562987 45.70794172 -22.5 48 C-25.12575695 51.07847367 -27.83865658 53.47092526 -31 56 C-35.76034684 60.99667611 -39.94961813 66.42145208 -44 72 C-44.99 71.67 -45.98 71.34 -47 71 C-46.50056241 69.36829707 -45.97375276 67.74497696 -45.4375 66.125 C-45.14746094 65.22007812 -44.85742188 64.31515625 -44.55859375 63.3828125 C-39.19229099 51.73564912 -29.69715125 43.46485779 -20.60375977 34.74072266 C-9.90284442 24.44017681 -1.83896285 15.32469043 0 0 Z " fill="#113F6C" transform="translate(204,125)"/>
<path d="M0 0 C0.495 0.99 0.495 0.99 1 2 C-1.49032109 5.05953734 -3.89239126 7.89728257 -6.75 10.625 C-8.94719092 12.94425708 -9.56224367 13.93570568 -10 17 C-10.495 17.495 -10.495 17.495 -11 18 C-10.75749512 18.57532471 -10.51499023 19.15064941 -10.26513672 19.7434082 C-10.1776416 20.4880835 -10.09014648 21.23275879 -10 22 C-11.91845703 24.42260742 -11.91845703 24.42260742 -14.7578125 27.10546875 C-15.25787811 27.58897293 -15.75794373 28.07247711 -16.27316284 28.57063293 C-17.8790607 30.12200234 -19.50002329 31.65614235 -21.125 33.1875 C-31.0383698 42.4443684 -31.0383698 42.4443684 -38 54 C-39.32 54 -40.64 54 -42 54 C-42.33 56.97 -42.66 59.94 -43 63 C-43.33 63 -43.66 63 -44 63 C-45.09798723 51.34913548 -41.80230167 44.56381672 -34.60351562 35.5625 C-24.04636142 22.88782136 -11.73663223 11.56702772 0 0 Z " fill="#13406D" transform="translate(140,117)"/>
<path d="M0 0 C2.5 1.5 2.5 1.5 4 4 C4.67208242 7.76984163 4.45372783 10.89403842 3 14.4375 C-0.09090421 16.85226892 -3.11445435 17.42332793 -7 17 C-10.04546351 15.03313815 -11.63385671 13.63954428 -12.44140625 10.0234375 C-12.63569916 6.6765855 -12.22224101 4.37040169 -10.5 1.5 C-6.96411027 -0.62153384 -4.02098277 -0.791013 0 0 Z " fill="#7594AF" transform="translate(266,200)"/>
<path d="M0 0 C0.99 0 1.98 0 3 0 C2.41689223 3.9177553 0.50358166 6.12964337 -2 9.125 C-4.78159708 12.37869505 -4.78159708 12.37869505 -7 16 C-2.38 16 2.24 16 7 16 C7 16.33 7 16.66 7 17 C1.06 17 -4.88 17 -11 17 C-8.02312139 4.64595376 -8.02312139 4.64595376 -4 1 C-3.01 1 -2.02 1 -1 1 C-0.67 0.67 -0.34 0.34 0 0 Z " fill="#0C3B6A" transform="translate(168,208)"/>
<path d="M0 0 C2.31 0.66 4.62 1.32 7 2 C5.89789095 3.75129657 4.79322568 5.50098464 3.6875 7.25 C3.07261719 8.22453125 2.45773438 9.1990625 1.82421875 10.203125 C0.29524241 12.54733713 -1.28820977 14.78784032 -3 17 C-3.33 16.01 -3.66 15.02 -4 14 C-4.33 15.65 -4.66 17.3 -5 19 C-5.33 19 -5.66 19 -6 19 C-6.8759457 11.26247962 -4.01272428 6.49679169 0 0 Z " fill="#103D6C" transform="translate(97,135)"/>
<path d="M0 0 C0.66 0 1.32 0 2 0 C3.10445137 3.3133541 3.13304048 5.82695195 3.125 9.3125 C3.12757813 10.42238281 3.13015625 11.53226563 3.1328125 12.67578125 C3.00527335 15.86801125 2.59757773 18.86508827 2 22 C1.34 20.68 0.68 19.36 0 18 C-1.65 18.99 -3.3 19.98 -5 21 C-5 17.82135715 -4.60631072 17.06912042 -3.0625 14.4375 C-0.59086281 9.74750292 -0.21453409 5.2346317 0 0 Z " fill="#EBF0F4" transform="translate(212,153)"/>
<path d="M0 0 C0.54817383 0.26675537 1.09634766 0.53351074 1.66113281 0.80834961 C1.18224609 1.21577393 0.70335938 1.62319824 0.20996094 2.04296875 C-5.03724807 6.56316247 -9.97242701 11.32083191 -14.83886719 16.24584961 C-15.56589844 16.97739258 -16.29292969 17.70893555 -17.04199219 18.46264648 C-18.80996217 20.24224785 -20.57553096 22.02415879 -22.33886719 23.80834961 C-23.32886719 23.47834961 -24.31886719 23.14834961 -25.33886719 22.80834961 C-22.15254345 19.49856912 -18.95023947 16.2054492 -15.73193359 12.92675781 C-14.63915117 11.80880729 -13.55089515 10.68641377 -12.46728516 9.55957031 C-10.91009375 7.94182938 -9.33739673 6.34069246 -7.76074219 4.74194336 C-7.27829041 4.23368515 -6.79583862 3.72542694 -6.29876709 3.20176697 C-2.86505136 -0.23476673 -2.86505136 -0.23476673 0 0 Z " fill="#E2ECF3" transform="translate(64.3388671875,223.191650390625)"/>
<path d="M0 0 C0.12375 0.639375 0.2475 1.27875 0.375 1.9375 C0.58125 2.618125 0.7875 3.29875 1 4 C1.66 4.33 2.32 4.66 3 5 C2.34 5 1.68 5 1 5 C1.02320313 5.67546875 1.04640625 6.3509375 1.0703125 7.046875 C1.09738281 8.38492188 1.09738281 8.38492188 1.125 9.75 C1.14820313 10.63171875 1.17140625 11.5134375 1.1953125 12.421875 C0.99139502 15.1135858 0.36551721 16.69904974 -1 19 C-1.99 18.67 -2.98 18.34 -4 18 C-6.6569191 18.87914688 -6.6569191 18.87914688 -9 20 C-8.43410156 18.89140625 -7.86820313 17.7828125 -7.28515625 16.640625 C-6.54405825 15.17719097 -5.80318456 13.71364333 -5.0625 12.25 C-4.68931641 11.52039063 -4.31613281 10.79078125 -3.93164062 10.0390625 C-3.57392578 9.33007812 -3.21621094 8.62109375 -2.84765625 7.890625 C-2.51773682 7.24125977 -2.18781738 6.59189453 -1.84790039 5.92285156 C-0.98547884 3.96706921 -0.45625821 2.08459306 0 0 Z " fill="#174370" transform="translate(211,148)"/>
<path d="M0 0 C0.66 0 1.32 0 2 0 C2.05789006 3.45826342 2.09355821 6.91640293 2.125 10.375 C2.14175781 11.35984375 2.15851563 12.3446875 2.17578125 13.359375 C2.18222656 14.30039062 2.18867188 15.24140625 2.1953125 16.2109375 C2.20578613 17.08024902 2.21625977 17.94956055 2.22705078 18.84521484 C2 21 2 21 0 23 C0 20.03 0 17.06 0 14 C-1.65 14.33 -3.3 14.66 -5 15 C-4.731875 14.38125 -4.46375 13.7625 -4.1875 13.125 C-2.5516213 8.82005607 -1.28728674 4.41968448 0 0 Z " fill="#C9D6DF" transform="translate(170,32)"/>
<path d="M0 0 C0.33 0 0.66 0 1 0 C2.14250594 5.49316857 2.18358697 10.85360973 2.1875 16.4375 C2.19974609 17.35337891 2.21199219 18.26925781 2.22460938 19.21289062 C2.23609561 24.54633415 1.75518142 28.95645496 0 34 C-0.33 34 -0.66 34 -1 34 C-0.67 22.78 -0.34 11.56 0 0 Z " fill="#D5E0E6" transform="translate(301,139)"/>
<path d="M0 0 C2.31 0 4.62 0 7 0 C6.71382812 0.70511719 6.42765625 1.41023437 6.1328125 2.13671875 C4.99523169 5.01205232 3.92607644 7.90452186 2.875 10.8125 C2.52179688 11.78832031 2.16859375 12.76414063 1.8046875 13.76953125 C1.53914062 14.50558594 1.27359375 15.24164063 1 16 C0.67 16 0.34 16 0 16 C0 10.72 0 5.44 0 0 Z " fill="#EFF5F8" transform="translate(157,235)"/>
<path d="M0 0 C0.99 0.33 1.98 0.66 3 1 C3 5.29 3 9.58 3 14 C1.35 14.33 -0.3 14.66 -2 15 C-1.38487182 9.99109914 -0.7282448 4.99367864 0 0 Z " fill="#1C4773" transform="translate(204,125)"/>
<path d="M0 0 C0.33 0.66 0.66 1.32 1 2 C-2.9060596 8.3917339 -7.18850264 14.19635241 -13 19 C-13.66 19 -14.32 19 -15 19 C-15.33 19.99 -15.66 20.98 -16 22 C-16.66 21.67 -17.32 21.34 -18 21 C-14.83267443 17.1087143 -11.55064519 13.55064519 -8 10 C-5.11721228 6.78183846 -2.39893561 3.59840341 0 0 Z " fill="#D2DEE7" transform="translate(201,150)"/>
<path d="M0 0 C5.35683849 -0.04941382 10.7135445 -0.08572607 16.07055664 -0.10986328 C17.89317129 -0.11992491 19.71576979 -0.1335756 21.53833008 -0.15087891 C24.15710435 -0.17512021 26.77566531 -0.18648138 29.39453125 -0.1953125 C30.21025101 -0.20563507 31.02597076 -0.21595764 31.8664093 -0.22659302 C35.77130756 -0.2273686 37.67524008 -0.21650661 41 2 C40.41508789 1.99476318 39.83017578 1.98952637 39.22753906 1.98413086 C36.56837037 1.96329842 33.90921889 1.95031993 31.25 1.9375 C30.32960937 1.92912109 29.40921875 1.92074219 28.4609375 1.91210938 C27.57148438 1.90888672 26.68203125 1.90566406 25.765625 1.90234375 C24.54020996 1.89448853 24.54020996 1.89448853 23.29003906 1.88647461 C20.99581621 1.92179108 20.99581621 1.92179108 18.82714844 2.56860352 C17 3 17 3 15 2 C12.45384991 1.76827173 9.92603775 1.58105471 7.375 1.4375 C6.66859375 1.39431641 5.9621875 1.35113281 5.234375 1.30664062 C3.48981463 1.20055249 1.74493303 1.09977111 0 1 C0 0.67 0 0.34 0 0 Z " fill="#456A8E" transform="translate(135,2)"/>
<path d="M0 0 C0.33 0.66 0.66 1.32 1 2 C-3.36211899 8.66730383 -8.63099818 13.267303 -15 18 C-15.66 17.67 -16.32 17.34 -17 17 C-11.39 11.39 -5.78 5.78 0 0 Z " fill="#34587E" transform="translate(160,97)"/>
<path d="M0 0 C0 3.54404336 -0.60989485 4.10267905 -2.875 6.6875 C-3.40867188 7.31011719 -3.94234375 7.93273437 -4.4921875 8.57421875 C-6 10 -6 10 -8 10 C-8.20625 10.556875 -8.4125 11.11375 -8.625 11.6875 C-10.55000774 14.92501302 -13.03850902 16.68231141 -16 19 C-16.66 18.67 -17.32 18.34 -18 18 C-12.06 12.06 -6.12 6.12 0 0 Z " fill="#1A436A" transform="translate(148,137)"/>
<path d="M0 0 C3.96 0.33 7.92 0.66 12 1 C9.80682128 5.38635744 8.08649371 6.51256905 4 9 C3.34 8.67 2.68 8.34 2 8 C2.33 6.68 2.66 5.36 3 4 C4.32 4 5.64 4 7 4 C7 3.34 7 2.68 7 2 C4.69 1.67 2.38 1.34 0 1 C0 0.67 0 0.34 0 0 Z " fill="#274F78" transform="translate(241,259)"/>
<path d="M0 0 C0.33 0.66 0.66 1.32 1 2 C-3.55615501 7.59756187 -8.26150154 12.57315833 -14 17 C-14.66 16.67 -15.32 16.34 -16 16 C-10.72 10.72 -5.44 5.44 0 0 Z " fill="#345981" transform="translate(140,117)"/>
<path d="M0 0 C1.65 0.33 3.3 0.66 5 1 C3.7508258 4.45925163 2.32472205 7.14693203 0 10 C-0.99 9.67 -1.98 9.34 -3 9 C-2.01 6.03 -1.02 3.06 0 0 Z " fill="#214B75" transform="translate(160,187)"/>
<path d="M0 0 C3.94139078 1.66751148 6.7892812 4.22710649 10 7 C9.34 8.32 8.68 9.64 8 11 C7.67 10.34 7.34 9.68 7 9 C6.34 9 5.68 9 5 9 C2.82796 6.03812728 1.16438003 3.49314009 0 0 Z " fill="#D3DFE8" transform="translate(190,106)"/>
<path d="M0 0 C0.33 0 0.66 0 1 0 C1.33 5.61 1.66 11.22 2 17 C1.34 17 0.68 17 0 17 C0 16.34 0 15.68 0 15 C-0.66 15 -1.32 15 -2 15 C-1.85973717 12.68715544 -1.71264442 10.37472409 -1.5625 8.0625 C-1.48128906 6.77472656 -1.40007812 5.48695313 -1.31640625 4.16015625 C-1 1 -1 1 0 0 Z " fill="#28527D" transform="translate(156,235)"/>
<path d="M0 0 C0.66 0 1.32 0 2 0 C1.33333333 1.33333333 0.66666667 2.66666667 0 4 C-0.268125 4.680625 -0.53625 5.36125 -0.8125 6.0625 C-3.05070751 9.71431226 -7.24171252 11.19045418 -11 13 C-8.35845491 8.79309485 -5.63204066 5.44088062 -2 2 C-1.34 1.34 -0.68 0.68 0 0 Z " fill="#DDE5EC" transform="translate(181,172)"/>
<path d="M0 0 C1 4 1 4 0 6 C0.66 6 1.32 6 2 6 C1.67 7.32 1.34 8.64 1 10 C5.62 10 10.24 10 15 10 C15 10.33 15 10.66 15 11 C9.06 11 3.12 11 -3 11 C-2.01 7.37 -1.02 3.74 0 0 Z " fill="#446688" transform="translate(160,214)"/>
<path d="M0 0 C0.66 0 1.32 0 2 0 C2 1.32 2 2.64 2 4 C3.32 3.01 4.64 2.02 6 1 C6.33 3.64 6.66 6.28 7 9 C6.01 8.67 5.02 8.34 4 8 C4 7.34 4 6.68 4 6 C3.34 6 2.68 6 2 6 C2 6.99 2 7.98 2 9 C1.34 9 0.68 9 0 9 C0 6.03 0 3.06 0 0 Z " fill="#C3D1DC" transform="translate(259,204)"/>
<path d="M0 0 C5.44736842 0.48421053 5.44736842 0.48421053 7.875 2.75 C9.18152386 5.36304771 9.24038873 7.11533524 9 10 C8.01 10.495 8.01 10.495 7 11 C6.76216797 10.15115234 6.76216797 10.15115234 6.51953125 9.28515625 C5.81418295 7.06779058 5.10846848 5.04806871 4 3 C1.42919865 1.86559222 1.42919865 1.86559222 -1 2 C-0.67 1.34 -0.34 0.68 0 0 Z " fill="#19436D" transform="translate(260,201)"/>
<path d="M0 0 C0.66 0.99 1.32 1.98 2 3 C1.67 3.33 1.34 3.66 1 4 C1.99 4.33 2.98 4.66 4 5 C-0.75 9.875 -0.75 9.875 -3 11 C-2.53199289 6.94393835 -2.12046792 3.53411321 0 0 Z " fill="#295179" transform="translate(161,240)"/>
<path d="M0 0 C0.33 0.66 0.66 1.32 1 2 C1.66 2 2.32 2 3 2 C3 1.34 3 0.68 3 0 C3.66 0 4.32 0 5 0 C4.25 5.75 4.25 5.75 2 8 C1.67 7.01 1.34 6.02 1 5 C0.67 6.65 0.34 8.3 0 10 C-0.33 10 -0.66 10 -1 10 C-1.125 2.25 -1.125 2.25 0 0 Z " fill="#244C74" transform="translate(92,144)"/>
<path d="M0 0 C0.33 0.66 0.66 1.32 1 2 C0.09674384 3.32176485 -0.82317903 4.63215066 -1.75 5.9375 C-2.26046875 6.66839844 -2.7709375 7.39929688 -3.296875 8.15234375 C-5.19177915 10.20805399 -6.27425729 10.62669176 -9 11 C-7.59155282 7.78475695 -5.89655214 5.67816132 -3.375 3.25 C-2.74335937 2.63640625 -2.11171875 2.0228125 -1.4609375 1.390625 C-0.73777344 0.70226562 -0.73777344 0.70226562 0 0 Z " fill="#2E547E" transform="translate(119,138)"/>
<path d="M0 0 C0.33 0.66 0.66 1.32 1 2 C-1.31537955 5.72114571 -3.28579473 8.61229661 -7 11 C-7.66 10.67 -8.32 10.34 -9 10 C-7.8758824 8.70756532 -6.75067408 7.41607925 -5.625 6.125 C-4.99851562 5.40570313 -4.37203125 4.68640625 -3.7265625 3.9453125 C-2.52573166 2.5923402 -1.2791655 1.2791655 0 0 Z " fill="#D9E4EC" transform="translate(113,127)"/>
<path d="M0 0 C6.52307692 0.61538462 6.52307692 0.61538462 8.9375 2.5625 C9.288125 3.036875 9.63875 3.51125 10 4 C7 5 7 5 4.4375 4.25 C2 3 2 3 0 0 Z " fill="#0B3A6B" transform="translate(222,22)"/>
<path d="M0 0 C0 3.49889647 -0.54120332 4.0553603 -2.75 6.625 C-3.26046875 7.23601562 -3.7709375 7.84703125 -4.296875 8.4765625 C-6.19607419 10.17538747 -7.51275949 10.5998787 -10 11 C-6.79239749 7.19364503 -3.59253891 3.45436433 0 0 Z " fill="#1B446B" transform="translate(127,158)"/>
<path d="M0 0 C2 1.625 2 1.625 4 4 C4.25 7.25 4.25 7.25 4 10 C3.01 10.33 2.02 10.66 1 11 C0.67 7.37 0.34 3.74 0 0 Z " fill="#E1E9EE" transform="translate(206,126)"/>
<path d="M0 0 C2 3 2 3 1.9375 5 C0.59332403 7.86757539 -1.18928474 8.66156416 -4 10 C-4.99 10 -5.98 10 -7 10 C-6.57847656 9.44570312 -6.15695313 8.89140625 -5.72265625 8.3203125 C-5.17480469 7.59585938 -4.62695312 6.87140625 -4.0625 6.125 C-3.51722656 5.40570313 -2.97195312 4.68640625 -2.41015625 3.9453125 C-0.96035376 2.05642921 -0.96035376 2.05642921 0 0 Z " fill="#264E77" transform="translate(169,57)"/>
<path d="M0 0 C0 0.66 0 1.32 0 2 C-1.051875 2.4021875 -1.051875 2.4021875 -2.125 2.8125 C-5.09739495 3.98691027 -5.09739495 3.98691027 -8.1875 5.6875 C-9.115625 6.120625 -10.04375 6.55375 -11 7 C-11.66 6.67 -12.32 6.34 -13 6 C-11.92250558 5.17977251 -10.83770492 4.36913831 -9.75 3.5625 C-9.14671875 3.11003906 -8.5434375 2.65757812 -7.921875 2.19140625 C-5.31259627 0.57386557 -3.05547025 0 0 0 Z " fill="#2E5478" transform="translate(176,251)"/>
<path d="M0 0 C0 3.58912412 -0.66436554 4.10857029 -3 6.6875 C-3.556875 7.31011719 -4.11375 7.93273437 -4.6875 8.57421875 C-5.120625 9.04472656 -5.55375 9.51523438 -6 10 C-6.99 9.67 -7.98 9.34 -9 9 C-6.03 6.03 -3.06 3.06 0 0 Z " fill="#D7E3EC" transform="translate(123,117)"/>
<path d="M0 0 C0 0.99 0 1.98 0 3 C-0.66 2.67 -1.32 2.34 -2 2 C-1.34 1.34 -0.68 0.68 0 0 Z M-6 4 C-5.01 4.33 -4.02 4.66 -3 5 C-6.465 7.97 -6.465 7.97 -10 11 C-10.66 10.67 -11.32 10.34 -12 10 C-10.02 8.02 -8.04 6.04 -6 4 Z " fill="#264E7A" transform="translate(155,104)"/>
<path d="M0 0 C0 3.99476331 -1.28869085 5.1421336 -4 8 C-6.75 9.3125 -6.75 9.3125 -9 10 C-8.06409496 8.8944811 -7.12620142 7.79064547 -6.1875 6.6875 C-5.66542969 6.07261719 -5.14335937 5.45773438 -4.60546875 4.82421875 C-3.12827531 3.14575321 -1.59960869 1.56117966 0 0 Z " fill="#2F557A" transform="translate(199,199)"/>
<path d="M0 0 C0.66 0 1.32 0 2 0 C0.59155282 3.21524305 -1.10344786 5.32183868 -3.625 7.75 C-4.57246094 8.67039063 -4.57246094 8.67039063 -5.5390625 9.609375 C-6.02117187 10.06828125 -6.50328125 10.5271875 -7 11 C-7.66 10.67 -8.32 10.34 -9 10 C-8.27683594 9.29423828 -8.27683594 9.29423828 -7.5390625 8.57421875 C-6.90742188 7.95160156 -6.27578125 7.32898438 -5.625 6.6875 C-4.68527344 5.76517578 -4.68527344 5.76517578 -3.7265625 4.82421875 C-1.81913393 2.91187472 -1.81913393 2.91187472 0 0 Z " fill="#1D466D" transform="translate(163,121)"/>
<path d="M0 0 C0.66 0 1.32 0 2 0 C2.33 2.97 2.66 5.94 3 9 C2.01 8.67 1.02 8.34 0 8 C0 5.36 0 2.72 0 0 Z " fill="#C3D0DB" transform="translate(212,153)"/>
<path d="M0 0 C0.33 0 0.66 0 1 0 C1 2.64 1 5.28 1 8 C0.01 8 -0.98 8 -2 8 C-1.125 1.125 -1.125 1.125 0 0 Z " fill="#103D69" transform="translate(257,203)"/>
<path d="M0 0 C0.33 0 0.66 0 1 0 C1.66 3.96 2.32 7.92 3 12 C2.34 12 1.68 12 1 12 C-2 7.61538462 -2 7.61538462 -2 5 C-1.34 5 -0.68 5 0 5 C0 3.35 0 1.7 0 0 Z " fill="#C1D3E2" transform="translate(95,172)"/>
<path d="M0 0 C4 4.625 4 4.625 4 8 C1.69 6.35 -0.62 4.7 -3 3 C-2.01 2.01 -1.02 1.02 0 0 Z " fill="#BDD1DF" transform="translate(108,195)"/>
<path d="M0 0 C1.42944945 2.35438733 2.08661261 3.48032433 1.625 6.25 C1.41875 6.8275 1.2125 7.405 1 8 C0.34 8 -0.32 8 -1 8 C-1.33 8.99 -1.66 9.98 -2 11 C-1.125 3.375 -1.125 3.375 0 0 Z " fill="#C8D4DD" transform="translate(296,188)"/>
<path d="M0 0 C0.33 0 0.66 0 1 0 C0.67 2.31 0.34 4.62 0 7 C-0.99 7.33 -1.98 7.66 -3 8 C-2.45276317 4.62537285 -1.9451 2.91765 0 0 Z " fill="#0F3B67" transform="translate(210,154)"/>
<path d="M0 0 C0.12375 0.639375 0.2475 1.27875 0.375 1.9375 C0.58125 2.618125 0.7875 3.29875 1 4 C1.66 4.33 2.32 4.66 3 5 C2.34 5 1.68 5 1 5 C1 8.3 1 11.6 1 15 C0.67 15 0.34 15 0 15 C-0.19601608 13.25093341 -0.38147403 11.50068154 -0.5625 9.75 C-0.66691406 8.77546875 -0.77132812 7.8009375 -0.87890625 6.796875 C-0.98974468 4.2368648 -0.77738092 2.41851841 0 0 Z " fill="#355C81" transform="translate(211,148)"/>
<path d="M0 0 C0.66 0 1.32 0 2 0 C1.34 1.65 0.68 3.3 0 5 C-0.66 5 -1.32 5 -2 5 C-2 5.66 -2 6.32 -2 7 C-2.66 6.67 -3.32 6.34 -4 6 C-1.125 1.125 -1.125 1.125 0 0 Z " fill="#1D4875" transform="translate(123,134)"/>
<path d="M0 0 C0.33 0.66 0.66 1.32 1 2 C-0.65 3.98 -2.3 5.96 -4 8 C-4.66 7.67 -5.32 7.34 -6 7 C-4.02 4.69 -2.04 2.38 0 0 Z " fill="#D1DBE6" transform="translate(170,211)"/>
<path d="M0 0 C1.65 0 3.3 0 5 0 C5.33 0.66 5.66 1.32 6 2 C5.01 3.485 5.01 3.485 4 5 C3.34 5 2.68 5 2 5 C2 3.68 2 2.36 2 1 C1.34 0.67 0.68 0.34 0 0 Z " fill="#708EA9" transform="translate(259,203)"/>
<path d="M0 0 C0.33 0 0.66 0 1 0 C1 2.31 1 4.62 1 7 C-0.65 7 -2.3 7 -4 7 C-2.68 4.69 -1.36 2.38 0 0 Z " fill="#234D72" transform="translate(169,85)"/>
</svg>
